<?xml version="1.0" encoding="utf-8"?>
<!-- Generator: Adobe Illustrator 26.0.1, SVG Export Plug-In . SVG Version: 6.00 Build 0)  -->
<svg version="1.1" xmlns="http://www.w3.org/2000/svg" xmlns:xlink="http://www.w3.org/1999/xlink" x="0px" y="0px"
	 viewBox="0 0 1895 602.9" style="enable-background:new 0 0 1895 602.9;" xml:space="preserve">
<style type="text/css">
	.st0{opacity:0.3;fill:#FFBE55;enable-background:new    ;}
	.st1{fill:#0B4870;}
	.st2{fill:#0E538C;}
	.st3{fill:#D3D3D3;}
	.st4{fill:none;}
	.st5{fill:#2A94F4;}
	.st6{fill:none;stroke:#2A94F4;stroke-width:18;stroke-linecap:round;stroke-miterlimit:10;}
	.st7{fill:#FFFFFF;}
	.st8{font-family:'Damion';}
	.st9{font-size:503.985px;}
</style>
<g id="Laag_2">
	<g>
		<g id="design_00000108996114019328258770000011579484757482165687_">
			<path class="st0" d="M188.2,53.3c-29.3,31.8-13,52.7-43.9,86.9c-30.2,33.3-53,21.2-83.2,55.1c-33.6,37.8-33.7,84.8-33.6,89.7
				c0.5,39.6,19.9,95.1,58.8,108.3c40.4,13.7,68.6-29.1,152.3-26.1c18,0.6,27.1,0.9,37.4,5.6c48.6,22.1,34.4,88.6,71.9,116.8
				c41.3,31.1,132,5.9,180.3-50.5c59.4-69.2,53.3-183.5,3.8-223.3c-49.1-39.4-123.7,7.9-152.3-31.8c-25.4-35.3,22.5-88.2-9.3-133.6
				c-18-25.6-49.4-31.8-63.5-34.6C263.7,7.4,216.5,22.7,188.2,53.3z"/>
			<path class="st0" d="M410.8,423.1c12.1-34-7.3-44.7,5.2-81c12.3-35.5,33.7-33.6,45.7-69.5c13.4-40-1.9-76.1-3.6-79.8
				c-13.3-30.2-46.4-66.4-80.6-63.8c-35.4,2.7-43.1,44.8-108.2,69.9c-14,5.4-21.1,8.2-30.5,7.9c-44.5-1-55.5-56.6-93.4-66
				c-41.8-10.3-103.1,38.7-121.8,97.8C0.7,311.2,42.8,396.8,93.9,411.1c50.5,14.1,92.3-46.6,127.2-25.5c31,18.7,11.6,75.1,50.9,99.4
				c22.2,13.8,48.3,8.2,60,5.7C367.9,483.1,399.1,455.8,410.8,423.1z"/>
		</g>
		<g id="clock_00000149368897714872667150000018184530518988534938_">
			<g>
				<circle class="st1" cx="277.2" cy="274.5" r="180.7"/>
				<circle class="st2" cx="277.2" cy="274.5" r="172.1"/>
				<path class="st3" d="M427.4,274.5c0,83-67.3,150.4-150.4,150.4c-74.7,0-136.6-54.4-148.4-125.7c-0.5-4.9-0.8-9.9-0.8-15.1
					c0-83,67.3-150.4,150.4-150.4c74.7,0,136.6,54.4,148.4,125.7C427.2,264.4,427.4,269.4,427.4,274.5z"/>
				<path class="st3" d="M427.3,260.7c-11.7-71.3-73.7-125.7-148.4-125.7c-83,0-150.4,67.3-150.4,150.4c0,5.1,0.3,10.1,0.8,15.1
					c-1.3-8-2-16.3-2-24.7c0-83,67.3-150.4,150.4-150.4C355.6,125.3,419.7,184.7,427.3,260.7z"/>
				<path class="st3" d="M427.1,259.4c-11.7-71.3-73.7-125.7-148.4-125.7c-83,0-150.4,67.3-150.4,150.4c0,5.1,0.3,10.1,0.8,15.1
					c-1.3-8-2-16.3-2-24.7c0-83,67.3-150.4,150.4-150.4C355.4,124.1,419.5,183.5,427.1,259.4z"/>
				<g>
					<g>
						<line class="st4" x1="277.2" y1="148.1" x2="277.2" y2="163.9"/>
						<rect x="273.7" y="148.1" class="st5" width="7.1" height="15.9"/>
					</g>
					<g>
						<line class="st4" x1="277.2" y1="396.9" x2="277.2" y2="412.8"/>
						<rect x="273.7" y="396.9" class="st5" width="7.1" height="15.9"/>
					</g>
				</g>
				<g>
					<g>
						<line class="st4" x1="144.9" y1="266.1" x2="160.8" y2="266.1"/>
						<rect x="144.9" y="262.5" class="st5" width="15.9" height="7.1"/>
					</g>
					<g>
						<line class="st4" x1="393.7" y1="266.1" x2="409.6" y2="266.1"/>
						<rect x="393.7" y="262.5" class="st5" width="15.9" height="7.1"/>
					</g>
				</g>
			</g>
		</g>
		<g id="arrows_00000056424851156583784840000000150936294064394174_">
			<line class="st6" x1="276.9" y1="266.3" x2="235.1" y2="308.2"/>
			<line class="st6" x1="277.7" y1="266.1" x2="321" y2="371.8"/>
			<circle class="st2" cx="277.2" cy="266.1" r="7.7"/>
		</g>
	</g>
</g>
<g id="Laag_3">
	<text transform="matrix(1 0 0 1 547.9949 445.4126)" class="st7 st8 st9">Matay</text>
</g>
</svg>
