<?xml version="1.0" encoding="utf-8"?>
<!-- Generator: Adobe Illustrator 26.0.1, SVG Export Plug-In . SVG Version: 6.00 Build 0)  -->
<svg version="1.1" xmlns="http://www.w3.org/2000/svg" xmlns:xlink="http://www.w3.org/1999/xlink" x="0px" y="0px"
	 viewBox="0 0 1895 602.9" style="enable-background:new 0 0 1895 602.9;" xml:space="preserve">
<style type="text/css">
	.st0{display:none;}
	.st1{display:inline;}
	.st2{fill:#1D1D1B;stroke:#000000;stroke-miterlimit:10;}
	.st3{fill:#FDEACB;}
	.st4{fill:#FDDDA7;}
	.st5{fill:#144E73;}
	.st6{fill:#FEEACC;}
	.st7{fill:#FBDCA7;}
	.st8{fill:#F5D8A6;}
	.st9{fill:#10548C;}
	.st10{fill:#D1D1D2;}
	.st11{fill:#3497F1;}
	.st12{fill:#135891;}
	.st13{opacity:0.3;fill:#FFBE55;enable-background:new    ;}
	.st14{fill:#0B4870;}
	.st15{fill:#0E538C;}
	.st16{fill:#D3D3D3;}
	.st17{fill:none;}
	.st18{fill:#2A94F4;}
	.st19{fill:none;stroke:#2A94F4;stroke-width:18;stroke-linecap:round;stroke-miterlimit:10;}
	.st20{font-family:'Damion';}
	.st21{font-size:503.985px;}
</style>
<g id="Laag_1" class="st0">
	<g class="st1">
		<g>
			<path class="st2" d="M1711,447.8c-0.3,0.7,0.4,1.3,1,1c18-9.5,33.6-18,49.4-25.9c8.8-4.4,17.7-8.9,27.1-11.6
				c4.9-1.4,12.9-1,15.7,2c3.5,3.8,6.1,12.7,3.9,16.6c-4.3,7.8-11.1,15.4-18.7,20c-19.8,12.1-40.6,22.6-61,33.8
				c-4.5,2.5-8.9,5-13.3,7.8c-19,11.9-34.5,26.1-41.5,49.1c-5.8,19-15.1,37.2-24.5,54.9c-4.8,9.2-12.3,17.4-20,24.5
				s-17.8,8.8-27.5,3.4c-9.6-5.3-12.2-15-10.2-24.6c2.8-12.9,6.2-26.2,12.2-37.8c7.4-14.2,18.5-26.5,26.6-40.4
				c20.3-34.4,39.6-69.3,59.4-103.9c0.4-0.7-0.5-1.5-1.2-0.9c-4.8,4.2-9.3,8.7-14,13c-17.4,16.1-33.7,33.4-52.5,47.7
				c-11.2,8.5-25.7,13.9-39.5,17.2c-19.6,4.7-26.9-1.8-28-22.2c0-0.6-0.7-0.9-1.2-0.6c-10.1,6.1-19.6,12.5-29.9,17.4
				c-30,14.2-55.7-1.7-55.7-34.8c0-2-0.4-3.5-1.1-7.4c-0.1-0.6-0.9-0.8-1.3-0.4c-3.4,3.8-5.7,6.8-8.5,9.1
				c-14.6,11.8-28.4,25.1-44.5,34.6c-24.6,14.4-63.9,2.3-69.4-37.7c-0.1-0.6-0.7-0.9-1.2-0.5c-12,8.3-23.4,17.7-36.2,24.1
				c-15.3,7.7-31.5,15-48.1,18.4c-26.5,5.4-38.9-4.9-42.1-31.9c-0.1-0.6-0.7-0.9-1.2-0.5c-7.8,5.7-14.9,11.7-22.8,16.1
				c-10.9,6.1-22.1,12.6-34,16c-19.3,5.5-34.3-4.7-38.8-24.3c-1.5-6.8-2-13.8-3.1-23.1c-0.1-0.6-0.9-0.9-1.3-0.4
				c-3.7,4.1-6.4,7.1-9.1,10.1c-16.6,17.7-34,34.5-59.4,38.6c-28.1,4.5-54.6-16.8-52.8-45c3.3-52.3,24.6-95.4,73.3-120
				c25.2-12.7,51.6-13.5,76.6,3.5c2.6,1.8,7.6,0.6,11.5,0.1c7.2-0.8,14.7-3.9,21.5-2.7c11.1,1.9,15,10.4,11.5,21.3
				c-7.4,22.8-15.4,45.4-22.3,68.4c-3,9.9-7.5,23,2.4,29.7c10.4,7.2,19.7-3.7,28.2-9.5c28-18.8,48.2-43.6,57.9-77
				c0.1-0.5-0.2-1-0.7-1c-5.4-0.3-10.9,0.3-15.5-1.5c-5-1.9-11.2-5.5-12.9-9.9c-1.4-3.8,1.7-10.6,4.7-14.5
				c7.2-9.1,18.2-8.9,28.4-7.7c10.3,1.2,15.3-2.9,19.6-12c13-27.4,27.1-54.2,40.6-81.4c5-10,11.7-18.7,23.6-19
				c6.5-0.2,15.5,1.5,19,5.8c3.4,4.2,3.4,13.7,1.2,19.4c-4.9,12.4-12.1,23.8-18.5,35.6c-8.7,16.2-17.4,32.3-27.1,50.2
				c-0.3,0.5,0.1,1.1,0.7,1.1c23.3,0,44.5-0.2,65.7,0.1c7.5,0.1,14.9,1.4,22.4,1.7c4,0.2,8.5,0.3,12.1-1.2
				c26.7-10.9,52.6-13.4,77.7,4.4c2.1,1.5,6.4,0.8,9.4,0.1c4.6-1.1,8.8-3.5,13.4-4.5c11.4-2.5,27.3,8,21.2,23.6
				c-8.7,21.9-15.6,44.5-22.4,67.1c-3,10-7.5,22.9,2.1,29.9c10.3,7.5,19.8-3.3,28.2-9.1c22.3-15.6,41.3-33.9,49.9-60.9
				c3.9-12.3,9.8-24,15.1-35.9c5.3-11.9,14.6-18.4,27.8-18.3c14.6,0.1,19.8,8.4,13.5,21.7c-12.7,26.7-25.6,53.2-38.3,79.8
				c-3.1,6.6-4.8,13.9-7.8,20.6c-0.3,0.7,0.6,1.4,1.2,0.9c6.3-5.4,14.2-9.2,20.2-15c29.5-28.6,58.5-57.6,88.2-86
				c6.7-6.4,14.6-12.3,23.1-16c5.2-2.3,14.8-2.3,18.1,1c3.1,3.1,2.4,12.7,0,18c-13.5,29.7-28,59-42.1,88.4
				C1714.2,441.1,1713,443.6,1711,447.8z M1374.4,361.9c0.3-0.5-0.1-1.1-0.7-1.1c-23.4,0-46.2-0.1-69,0.2c-2.5,0-6.1,2.1-7.1,4.3
				c-11.7,23.6-23.3,47.3-34.2,71.3c-1.9,4.2-0.6,9.9-0.6,15c0,0.4,0.3,0.8,0.8,0.7c5.5-0.2,11.8,1.2,15.9-1.3
				c24-14.3,47.4-29.6,70.9-44.7c1.5-1,2.5-3,3.4-4.7C1360.5,388.8,1367.1,375.9,1374.4,361.9z M1094.1,361.7
				c-0.1,0-0.2-0.1-0.3-0.1c-30.5,1.7-59.7,38.5-55.4,70.7c2.8,21.4,18,28.8,33.5,14c17.7-17,32.3-37.2,47.5-56.6
				c6-7.6,3-15.4-5-19.9C1108,366.3,1100.9,364.3,1094.1,361.7z M1386,424.6L1386,424.6c0.1,1.1,0.6,5.9,1,7
				c3,9.4,6.9,14.7,13.8,19.8c9.4,7.1,19.5-0.4,26-7.5c14.3-15.6,28.2-31.7,40.5-48.9c10.6-14.8,6.6-24.9-11.2-29.4
				c-8.6-2.2-19.1-1.8-27.4,1.2C1406.2,374.9,1385.9,400.4,1386,424.6z"/>
			<path class="st2" d="M784,282.9c-7.7,16.1-14.1,32-22.7,46.7c-23.8,40.7-47.6,81.5-73.4,121c-14.1,21.7-33.7,38.6-60.9,43.8
				c-14.9,2.8-24.4,0.7-27-7.3c-2.6-7.9,4.6-16.8,15.1-24.3c12.6-9,25.6-18.7,35.1-30.8c35-44.1,59.2-94.8,83.3-145.2
				c18.2-38,34.8-76.6,51.9-115.1c4.2-9.4,10.2-15.7,20.9-16.7c11.3-1,16.1,5.3,16.6,15.3c2.4,51.1,4.5,102.3,6.6,153.4
				c0.5,12.1,0.1,24.3,0.1,38.5c2.8-4.7,5-8.1,7-11.6c27.7-48.6,55-97.4,83.2-145.7c7.7-13.2,17-25.7,27.2-37.1
				c4.2-4.7,13.8-8.4,19.3-6.8c4.4,1.2,9.2,11.3,8.8,17.1c-1.6,28.7-4.8,57.3-7.7,85.9c-6.5,65-20,129.3-18.6,195.1
				c0.5,23.4-8.9,33.5-28.2,34.7c-12.9,0.8-19-3.8-18.3-16.9c1-20.4,3.4-40.8,5.8-61.1c5.8-48.9,11.9-97.7,16.1-147.4
				c-1.8,3.1-3.6,6.1-5.3,9.3c-23.8,44.9-47.1,90-71.6,134.4c-6.7,12.2-16.8,22.7-26.2,33.2c-3.7,4.2-9.5,7.3-14.9,9.1
				c-10.9,3.6-18-2.6-18.2-14.1c-0.7-51.6-1.6-103.3-2.4-154.9C785.4,285.1,784.9,284.5,784,282.9z"/>
			<path class="st3" d="M397.3,192.8c21.4,1,34.9,15,47.8,29.4c6.5,7.3,12.4,15.6,16.1,24.5c3.4,8.2,8.1,10,16.1,10
				c26.5-0.1,51.1,5.9,68.4,28c13.7,17.4,20.1,38,23.3,59.7c0.4,3,1.3,6,2,9c0,11.1,0,22.2,0,33.3c-6.8,22.4-10.6,46.2-20.9,66.8
				c-25.6,51.5-70.5,78.2-125.9,89.4c-17.1,3.5-33.7,2.9-49.9-3.1c-5.4-2-9.7-7-14.5-10.6c4.2-2.2,8.5-4.2,12.5-6.7
				c29.5-19.2,51.5-43,49.6-81.2c19.7-24.7,34.1-52,39.2-83.5c1.5-9.2,2.2-18.5,3.3-27.7c9.9-17.3,9.4-36.2,5.9-54.5
				c-3.1-15.8-8.4-11.4-20.9-16.3C437,233.1,419.1,211.5,397.3,192.8z"/>
			<path class="st3" d="M168.3,202c8-19.1,16-38.1,23.9-57.2c12.3-29.5,36.4-45.6,65.2-55.8c32.5-11.5,64.5-8.6,95.5,5.5
				c29.5,13.5,43,39.3,38.4,71.2c-1,7-1.8,14-2.8,21c-36.4-22.3-75.4-32.7-118.3-27.1c-37.2,4.8-68.7,21.2-96.7,45.4
				C171.8,203.9,170,203,168.3,202z"/>
			<path class="st4" d="M168.3,202c1.8,1,3.5,2,5.3,2.9c-2.1,2.3-4.1,4.7-6.2,7c-30.3,33-46.1,71.7-46.4,116.6
				c-0.3,40.5,13.6,76.1,37.6,108.2c-3.4,1-6.8,2-10.2,3.1c-26.3,8.6-49.2,2.8-65.3-19.1c-23.7-32.1-33.2-68.4-24.4-107.9
				c9.4-42.3,32.2-73.7,75.1-88.4c11.3-3.9,23-8.9,27.9-21.7C163.8,202.5,166,202.2,168.3,202z"/>
			<path class="st5" d="M158.5,436.7c-24-32.1-37.9-67.6-37.6-108.2c0.4-44.9,16.2-83.6,46.4-116.6c2.1-2.3,4.1-4.7,6.2-7
				c27.9-24.2,59.5-40.6,96.7-45.4c42.9-5.5,81.9,4.8,118.3,27.1c3.1,2.2,6.3,4.4,9.4,6.5c21.8,18.6,38.4,36.6,51.9,66.4
				c13.5,50.2,6.3,23.2,14.4,70.4c-1.1,9.2-1.1,18.9-2.6,28.1c-5.1,31.5-19.4,58.8-39.2,83.5c-23.9,25.4-52.2,43.5-85.9,53.1
				c-23.6,1.3-47.2,2.6-70.8,3.8c-36.2-6.8-67.7-22.8-94.7-47.8C166.9,446.1,162.7,441.4,158.5,436.7z M291.2,491.1
				c89.3,2.7,162.6-72,164.7-157.6c2.3-94.3-75.4-165.1-158-167c-91.2-2.1-168.5,67.3-168.9,162.1
				C128.6,419.6,201.1,491.1,291.2,491.1z"/>
			<path class="st6" d="M158.5,436.7c4.2,4.7,8.4,9.3,12.6,14c-15.6,5.3-30.7,12.4-48.1,8.4c-26.4-6.1-43.1-23.9-56.1-45.7
				c-43.5-73.1-19.2-162.6,56-202.9c11.1-6,25.7-5.4,38.7-7.9c-4.9,12.9-16.6,17.8-27.9,21.7C90.9,239,68,270.4,58.6,312.7
				c-8.8,39.5,0.7,75.8,24.4,107.9c16.1,21.9,39.1,27.7,65.3,19.1C151.7,438.7,155.2,437.8,158.5,436.7z"/>
			<path class="st7" d="M336.6,494.7c33.7-9.5,62-27.7,85.9-53.1c1.9,38.3-20.1,62.1-49.6,81.2c-4,2.6-8.3,4.5-12.5,6.7
				c-2.3-0.1-4.5-0.2-6.8-0.3C348,517.7,342.3,506.2,336.6,494.7z"/>
			<path class="st3" d="M336.6,494.7c5.7,11.5,11.4,23.1,17,34.6c-31.3,14.9-77.2,8.3-87.8-30.7C289.4,497.2,313,496,336.6,494.7z"
				/>
			<path class="st8" d="M464.2,330c-7.3-47.5-8.1-47.1-14.4-70.8c13.8,4.1,17.9,2.5,20.3,15.1C471.3,281,477.5,310.8,464.2,330z"/>
			<path class="st9" d="M291.2,491.1c-90.1,0-162.6-71.5-162.2-162.5c0.4-94.8,77.7-164.2,168.9-162.1c82.6,1.9,160.2,72.7,158,167
				C453.8,419.1,380.5,493.8,291.2,491.1z M434.9,327c2.7-67.7-55.7-140-142.2-140.2c-79.7-0.2-143.6,64.8-143,144
				c0.6,77.6,64.9,140.9,142.8,140.6C372.3,471.1,435.5,407,434.9,327z"/>
			<path class="st10" d="M434.9,327c0.6,80-62.6,144.1-142.4,144.4c-77.9,0.3-142.2-63-142.8-140.6c-0.6-79.2,63.3-144.2,143-144
				C379.2,186.9,437.6,259.3,434.9,327z M299.9,324.5c-2.1-3.6-4.1-7.1-6.2-10.7c-3.1,2.7-6.2,5.4-9.3,8.1
				c-10.8,10.4-21.8,20.5-32.2,31.3c-2.4,2.5-2.6,7.2-3.8,10.9c4-1,9.2-0.8,11.8-3.3c9.7-9.7,18.5-20.2,29.3-32.2
				c3.7,8.4,5.6,12.6,7.3,16.9c10.2,24.7,20.2,49.5,30.8,74.1c1.2,2.8,5.4,4.3,8.3,6.5c0.8-3.4,3.1-7.4,2-10
				C325.5,385.4,312.6,355,299.9,324.5z"/>
			<path class="st11" d="M299.9,324.5c12.7,30.5,25.6,60.9,38,91.5c1.1,2.6-1.3,6.7-2,10c-2.8-2.1-7.1-3.7-8.3-6.5
				c-10.6-24.6-20.6-49.4-30.8-74.1c-1.8-4.3-3.7-8.5-7.3-16.9c-10.8,12.1-19.6,22.6-29.3,32.2c-2.5,2.5-7.8,2.3-11.8,3.3
				c1.2-3.7,1.4-8.3,3.8-10.9c10.4-10.8,21.4-20.9,32.2-31.3C288.4,329.5,293.8,329.5,299.9,324.5z"/>
			<path class="st12" d="M299.9,324.5c-6.1,5-11.4,5-15.5-2.5c3.1-2.7,6.2-5.4,9.3-8.1C295.8,317.4,297.8,321,299.9,324.5z"/>
		</g>
	</g>
</g>
<g id="Laag_2">
	<g>
		<g id="design_00000108996114019328258770000011579484757482165687_">
			<path class="st13" d="M188.2,53.3c-29.3,31.8-13,52.7-43.9,86.9c-30.2,33.3-53,21.2-83.2,55.1c-33.6,37.8-33.7,84.8-33.6,89.7
				c0.5,39.6,19.9,95.1,58.8,108.3c40.4,13.7,68.6-29.1,152.3-26.1c18,0.6,27.1,0.9,37.4,5.6c48.6,22.1,34.4,88.6,71.9,116.8
				c41.3,31.1,132,5.9,180.3-50.5c59.4-69.2,53.3-183.5,3.8-223.3c-49.1-39.4-123.7,7.9-152.3-31.8c-25.4-35.3,22.5-88.2-9.3-133.6
				c-18-25.6-49.4-31.8-63.5-34.6C263.7,7.4,216.5,22.7,188.2,53.3z"/>
			<path class="st13" d="M410.8,423.1c12.1-34-7.3-44.7,5.2-81c12.3-35.5,33.7-33.6,45.7-69.5c13.4-40-1.9-76.1-3.6-79.8
				c-13.3-30.2-46.4-66.4-80.6-63.8c-35.4,2.7-43.1,44.8-108.2,69.9c-14,5.4-21.1,8.2-30.5,7.9c-44.5-1-55.5-56.6-93.4-66
				c-41.8-10.3-103.1,38.7-121.8,97.8C0.7,311.2,42.8,396.8,93.9,411.1c50.5,14.1,92.3-46.6,127.2-25.5c31,18.7,11.6,75.1,50.9,99.4
				c22.2,13.8,48.3,8.2,60,5.7C367.9,483.1,399.1,455.8,410.8,423.1z"/>
		</g>
		<g id="clock_00000149368897714872667150000018184530518988534938_">
			<g>
				<circle class="st14" cx="277.2" cy="274.5" r="180.7"/>
				<circle class="st15" cx="277.2" cy="274.5" r="172.1"/>
				<path class="st16" d="M427.4,274.5c0,83-67.3,150.4-150.4,150.4c-74.7,0-136.6-54.4-148.4-125.7c-0.5-4.9-0.8-9.9-0.8-15.1
					c0-83,67.3-150.4,150.4-150.4c74.7,0,136.6,54.4,148.4,125.7C427.2,264.4,427.4,269.4,427.4,274.5z"/>
				<path class="st16" d="M427.3,260.7c-11.7-71.3-73.7-125.7-148.4-125.7c-83,0-150.4,67.3-150.4,150.4c0,5.1,0.3,10.1,0.8,15.1
					c-1.3-8-2-16.3-2-24.7c0-83,67.3-150.4,150.4-150.4C355.6,125.3,419.7,184.7,427.3,260.7z"/>
				<path class="st16" d="M427.1,259.4c-11.7-71.3-73.7-125.7-148.4-125.7c-83,0-150.4,67.3-150.4,150.4c0,5.1,0.3,10.1,0.8,15.1
					c-1.3-8-2-16.3-2-24.7c0-83,67.3-150.4,150.4-150.4C355.4,124.1,419.5,183.5,427.1,259.4z"/>
				<g>
					<g>
						<line class="st17" x1="277.2" y1="148.1" x2="277.2" y2="163.9"/>
						<rect x="273.7" y="148.1" class="st18" width="7.1" height="15.9"/>
					</g>
					<g>
						<line class="st17" x1="277.2" y1="396.9" x2="277.2" y2="412.8"/>
						<rect x="273.7" y="396.9" class="st18" width="7.1" height="15.9"/>
					</g>
				</g>
				<g>
					<g>
						<line class="st17" x1="144.9" y1="266.1" x2="160.8" y2="266.1"/>
						<rect x="144.9" y="262.5" class="st18" width="15.9" height="7.1"/>
					</g>
					<g>
						<line class="st17" x1="393.7" y1="266.1" x2="409.6" y2="266.1"/>
						<rect x="393.7" y="262.5" class="st18" width="15.9" height="7.1"/>
					</g>
				</g>
			</g>
		</g>
		<g id="arrows_00000056424851156583784840000000150936294064394174_">
			<line class="st19" x1="276.9" y1="266.3" x2="235.1" y2="308.2"/>
			<line class="st19" x1="277.7" y1="266.1" x2="321" y2="371.8"/>
			<circle class="st15" cx="277.2" cy="266.1" r="7.7"/>
		</g>
	</g>
</g>
<g id="Laag_3">
	<text transform="matrix(1 0 0 1 547.9949 445.4126)" class="st20 st21">Matay</text>
</g>
</svg>
